<?xml version="1.0" encoding="utf-8"?>
<!-- Generator: Adobe Illustrator 27.7.0, SVG Export Plug-In . SVG Version: 6.00 Build 0)  -->
<svg version="1.1" id="Layer_1" xmlns="http://www.w3.org/2000/svg" xmlns:xlink="http://www.w3.org/1999/xlink" x="0px" y="0px"
	 viewBox="0 0 600 600" style="enable-background:new 0 0 600 600;" xml:space="preserve">
<style type="text/css">
	.st0{fill:#FFFFFF;}
</style>
<path class="st0" d="M129.6,292.18c14.08,0,28.17,0.12,42.25-0.08c3.44-0.05,4.17,1.03,4.23,4.31
	c1.29,70.49,53.61,132.95,123.05,145.73c56.35,10.37,104.37-6.04,143.57-47.86c2.55-2.73,3.83-3.22,6.92-0.59
	c21.29,18.2,42.73,36.22,64.27,54.11c3.12,2.59,3.04,4.11,0.45,6.99c-39.29,43.85-87.72,71.17-145.92,80.79
	C239.07,556.98,114.88,471.87,87.9,343.44c-3.24-15.43-5.11-30.99-5.39-46.76c-0.06-3.38,0.66-4.65,4.38-4.59
	C101.13,292.33,115.36,292.19,129.6,292.18z"/>
<path class="st0" d="M275.81,140.42c-0.14,38.72-31.48,69.8-70.22,69.65c-38.61-0.15-69.96-31.67-69.84-70.21
	c0.12-38.51,31.84-70.11,70.19-69.92C244.99,70.14,275.95,101.36,275.81,140.42z"/>
<path class="st0" d="M365.74,141.44c2.47-10.15,4.86-19.87,7.22-29.6c4.47-18.44,9.01-36.86,13.31-55.34
	c0.75-3.22,1.62-4.15,5.03-3.22c49.06,13.27,90.26,39.07,123.87,77.15c2.12,2.4,1.48,3.39-0.64,5.17
	c-22.03,18.46-43.99,37.01-65.9,55.61c-1.99,1.69-3.08,1.93-5.01-0.25c-20.27-22.89-45.14-38.51-74.64-46.71
	C367.43,143.81,365.02,143.89,365.74,141.44z"/>
</svg>
